<svg viewBox="0 0 533.36 122.89" xmlns="http://www.w3.org/2000/svg" xmlns:xlink="http://www.w3.org/1999/xlink"><linearGradient id="a" gradientUnits="userSpaceOnUse" x1="458.55" x2="527.39" y1="536.71" y2="655.94"><stop offset="0" stop-color="#9f0"/><stop offset="1" stop-color="#00dd3b"/></linearGradient><linearGradient id="b" x1="488.11" x2="497.83" xlink:href="#a" y1="587.9" y2="604.73"/><path d="m458.71 571.38c-1.89-7.65-4.75-24.66 3-29.11 7.72-4.42 21 6.54 26.79 12a141.85 141.85 0 0 0 -11.61 14.27 144.35 144.35 0 0 0 -18.18 2.88zm26.56-3.45c2.54-3.31 5.12-6.36 7.69-9.13a114.54 114.54 0 0 1 7.69 9.13c-5.12-.23-10.23-.23-15.38 0zm-4.86 6.71a167.47 167.47 0 0 1 25.1 0 162.34 162.34 0 0 1 11.49 19.46c.37.74.74 1.48 1.09 2.2-.34.74-.71 1.48-1.09 2.23a166.38 166.38 0 0 1 -11.47 19.47 167.47 167.47 0 0 1 -25.1 0 165.69 165.69 0 0 1 -12.55-21.69 166.87 166.87 0 0 1 12.52-21.69zm36.59 37.24c1.57-2.63 3.06-5.31 4.46-8 1.6 3.85 3 7.59 4.09 11.22-2.72.63-5.57 1.17-8.55 1.63-1.06.17-2.14.31-3.23.46 1.11-1.74 2.2-3.51 3.23-5.28zm-56.55-34.33c3.69-.83 7.63-1.54 11.78-2.05-2.77 4.31-5.35 8.76-7.69 13.3-1.6-3.85-3-7.62-4.09-11.24zm37 60.85a141.85 141.85 0 0 0 11.55-14.28c2.72-.26 5.35-.57 7.92-1 3.57-.51 7-1.17 10.26-1.91 1.89 7.68 4.75 24.69-3 29.14a9.92 9.92 0 0 1 -7.18.65c-4.12-1-9-3.8-14.32-8-1.72-1.4-3.43-2.91-5.2-4.59zm-32.93-34.53c2.34 4.54 4.92 9 7.69 13.3-4.15-.54-8.09-1.26-11.78-2.08 1.11-3.62 2.49-7.39 4.09-11.22zm-5.8 17.38a144.36 144.36 0 0 0 18.18 2.88 145.79 145.79 0 0 0 11.58 14.27c-5.72 5.45-19 16.44-26.76 12-7.75-4.45-4.86-21.46-3-29.14zm-28.24-24.91c0-8.93 16.18-15 23.76-17.18a139.94 139.94 0 0 0 6.6 17.18 137.87 137.87 0 0 0 -6.6 17.15c-7.58-2.23-23.76-8.25-23.76-17.15zm22 23.32c-2.63 10.76-5.12 29.82 6 36.27 11.12 6.42 26.44-5.31 34.45-13 1.92 1.83 3.83 3.48 5.69 5 6.46 5.19 12.75 8.5 18.32 9.48a15.22 15.22 0 0 0 10.46-1.51c11.12-6.42 8.63-25.51 6-36.27 10.66-3.11 28.5-10.5 28.5-23.32s-17.83-20.22-28.47-23.31c2.63-10.76 5.12-29.85-6-36.27a15.28 15.28 0 0 0 -10.43-1.57c-8.92 1.6-18.3 9.08-24 14.53-8-7.68-23.33-19.38-34.48-13-11.12 6.39-8.63 25.51-6 36.27-10.66 3.08-28.5 10.47-28.5 23.32s17.84 20.21 28.47 23.32zm64.52-38.92c-1-1.77-2.12-3.54-3.23-5.25 1.11.14 2.17.29 3.23.46 3 .46 5.83 1 8.55 1.6-1.11 3.62-2.49 7.39-4.09 11.24q-2.1-4.07-4.46-8zm-19.5-26.51c4.15-4 12.38-10.87 19.5-12.61a9.67 9.67 0 0 1 7.26.66c7.75 4.45 4.86 21.46 3 29.11-3.26-.74-6.69-1.37-10.26-1.91-2.57-.37-5.2-.71-7.92-1a145.79 145.79 0 0 0 -11.58-14.27zm34.25 59.25a139.61 139.61 0 0 0 -6.6-17.15 138.2 138.2 0 0 0 6.6-17.18c7.58 2.23 23.76 8.25 23.76 17.18s-16.18 14.93-23.76 17.15zm-46.43 11.22c5.12.23 10.23.23 15.38 0-2.54 3.31-5.12 6.36-7.69 9.16-2.6-2.8-5.17-5.85-7.69-9.16z" fill="url(#a)" fill-rule="evenodd" transform="translate(-424.03 -534.88)"/><path d="m493 606a9.72 9.72 0 1 0 -9.75-9.7 9.74 9.74 0 0 0 9.75 9.7z" fill="url(#b)" fill-rule="evenodd" transform="translate(-424.03 -534.88)"/><g fill="#fefefe"><path d="m622.43 578.17v-28.08h12.84c3.57 0 6.32 1 8.2 2.85a8.8 8.8 0 0 1 2.43 6.51 8.57 8.57 0 0 1 -6 8.7l6.86 10h-7.23l-6.12-9h-4.81v9zm6.17-14.44h6.26a5.23 5.23 0 0 0 3.52-1.08 3.79 3.79 0 0 0 1.23-3 3.55 3.55 0 0 0 -1.29-3 5.55 5.55 0 0 0 -3.57-1h-6.15z" transform="translate(-424.03 -534.88)"/><path d="m227.16 43.3v-28.09h21.21v5.51h-15.07v5.71h13.27v5.48h-13.27v5.91h15.27v5.48z"/><path d="m676 578.17 12-28.28h5.72l12 28.28h-6.46l-2.57-6.28h-11.83l-2.57 6.28zm11.09-11.76h7.49l-3.74-9.1z" transform="translate(-424.03 -534.88)"/><path d="m721 578.66a13.83 13.83 0 0 1 -10.29-4.2 14.82 14.82 0 0 1 16.7-23.66 17.83 17.83 0 0 1 4.75 3.4l-3.72 4.25a13.29 13.29 0 0 0 -3.37-2.4 9.21 9.21 0 0 0 -3.86-.74 7.59 7.59 0 0 0 -5.83 2.54 9.67 9.67 0 0 0 0 12.56 7.52 7.52 0 0 0 5.83 2.57 8.8 8.8 0 0 0 3.92-.83 14.23 14.23 0 0 0 3.49-2.48l3.95 4.22a15.3 15.3 0 0 1 -5 3.6 16 16 0 0 1 -6.58 1.17z" transform="translate(-424.03 -534.88)"/><path d="m320.32 43.3v-22.38h-8.57v-5.71h23.32v5.71h-8.57v22.38z"/><path d="m785.89 578.57a17.25 17.25 0 0 1 -11.89-4.48l3.66-4.37a13.18 13.18 0 0 0 8.38 3.4 5.27 5.27 0 0 0 3-.71 2.23 2.23 0 0 0 1.09-2 2.31 2.31 0 0 0 -1.11-2 17.07 17.07 0 0 0 -4.55-1.6 36.48 36.48 0 0 1 -3.89-1.2 13.61 13.61 0 0 1 -2.83-1.54 5.57 5.57 0 0 1 -2-2.43 8.66 8.66 0 0 1 -.63-3.51 7.64 7.64 0 0 1 2.74-6.14 10.71 10.71 0 0 1 7.09-2.34 16.3 16.3 0 0 1 10.46 3.57l-3.23 4.65a13.2 13.2 0 0 0 -7.29-2.77 4.49 4.49 0 0 0 -2.69.71 2.17 2.17 0 0 0 -.94 1.83 2.25 2.25 0 0 0 1.17 2.05 22 22 0 0 0 4.89 1.63 17 17 0 0 1 6.78 3.11 6.8 6.8 0 0 1 2.14 5.39 7.83 7.83 0 0 1 -2.83 6.42 11.61 11.61 0 0 1 -7.49 2.28z" transform="translate(-424.03 -534.88)"/><path d="m813.33 578.63c-3.83 0-6.8-1.06-8.95-3.2s-3.23-5.22-3.23-9.28v-16.06h6.2v15.91a7.55 7.55 0 0 0 1.57 5.17 6.66 6.66 0 0 0 9 .06 7.2 7.2 0 0 0 1.57-5v-16.1h6.2v15.87c0 4.17-1.09 7.31-3.29 9.45s-5.2 3.22-9.06 3.22z" transform="translate(-424.03 -534.88)"/><path d="m407.94 43.3v-28.09h6.69l7.38 11.88 7.4-11.88h6.66v28.09h-6.14v-18.32l-7.92 11.98h-.14l-7.84-11.87v18.21z"/><path d="m442.85 43.3v-28.09h6.66l7.4 11.88 7.38-11.88h6.69v28.09h-6.18v-18.32l-7.89 11.98h-.17l-7.83-11.87v18.21z"/><path d="m477.44 15.21h6.17v28.08h-6.17z"/><path d="m497.19 43.3v-22.38h-8.54v-5.71h23.29v5.71h-8.54v22.38z"/><path d="m614.19 646.87 15.15-35.56h7.18l15.18 35.56h-8.15l-3.23-7.87h-15l-3.23 7.91zm14-14.78h9.41l-4.72-11.44z" transform="translate(-424.03 -534.88)"/><path d="m233.13 111.99v-35.33h8.38l9.29 14.95 9.32-14.95h8.37v35.33h-7.72v-23.06l-9.97 15.1h-.2l-9.84-14.96v22.92z"/><path d="m713.62 647.38a21.85 21.85 0 0 1 -15-5.65l4.6-5.51c3.49 2.85 7 4.28 10.58 4.28a6.8 6.8 0 0 0 3.74-.88 2.91 2.91 0 0 0 1.37-2.54 2.87 2.87 0 0 0 -1.43-2.45 23.11 23.11 0 0 0 -5.72-2 41.88 41.88 0 0 1 -4.89-1.48 18.11 18.11 0 0 1 -3.57-1.94 7.56 7.56 0 0 1 -2.49-3.05 11.45 11.45 0 0 1 -.77-4.42 9.64 9.64 0 0 1 3.46-7.73 13.41 13.41 0 0 1 8.92-2.91 20.39 20.39 0 0 1 13.15 4.48l-4.06 5.85c-3.32-2.31-6.4-3.48-9.18-3.48a5.71 5.71 0 0 0 -3.37.88 2.74 2.74 0 0 0 -1.17 2.31 2.79 2.79 0 0 0 1.46 2.57 28.52 28.52 0 0 0 6.15 2.05c3.86 1 6.69 2.31 8.52 3.88a8.62 8.62 0 0 1 2.72 6.82 9.84 9.84 0 0 1 -3.57 8c-2.37 1.94-5.52 2.91-9.41 2.91z" transform="translate(-424.03 -534.88)"/><path d="m317.58 111.99v-28.17h-10.75v-7.16h29.3v7.16h-10.78v28.17z"/><path d="m342.11 111.99v-35.33h26.67v6.93h-18.96v7.17h16.7v6.9h-16.7v7.42h19.22v6.91z"/><path d="m800 646.87v-35.33h16.18c4.49 0 7.92 1.2 10.32 3.6a11 11 0 0 1 3 8.16q0 8.13-7.58 11l8.63 12.61h-9.09l-7.69-11.3h-6v11.3zm7.8-18.15h7.89a6.38 6.38 0 0 0 4.37-1.4 4.67 4.67 0 0 0 1.57-3.71 4.57 4.57 0 0 0 -1.6-3.77 7.14 7.14 0 0 0 -4.52-1.28h-7.72z" transform="translate(-424.03 -534.88)"/><path d="m836.83 646.87v-35.33h13.78q8.32 0 13.55 5a17.76 17.76 0 0 1 0 25.26c-3.52 3.37-8 5.05-13.52 5.05zm7.78-7h6a10.65 10.65 0 1 0 0-21.29h-6z" transform="translate(-424.03 -534.88)"/><path d="m872.17 646.87 15.18-35.56h7.18l15.15 35.56h-8.12l-3.24-7.87h-15l-3.23 7.91zm14-14.78h9.41l-4.69-11.44z" transform="translate(-424.03 -534.88)"/><path d="m491.11 111.99v-35.33h8.4l9.29 14.95 9.32-14.95h8.38v35.33h-7.72v-23.06l-9.98 15.1h-.2l-9.86-14.96v22.92z"/></g><path d="m944.66 559v-3l5.69-4.65a14.65 14.65 0 0 0 2.32-2.23 3.09 3.09 0 0 0 .63-1.86 2.21 2.21 0 0 0 -.63-1.63 2.32 2.32 0 0 0 -1.66-.6 3.06 3.06 0 0 0 -1.72.54 9 9 0 0 0 -1.77 1.74l-2.63-2.11a9.62 9.62 0 0 1 2.77-2.65 6.83 6.83 0 0 1 3.57-.86 6.07 6.07 0 0 1 4.26 1.46 4.83 4.83 0 0 1 1.63 3.85 5.86 5.86 0 0 1 -.54 2.48 7.33 7.33 0 0 1 -1.4 1.94 24.17 24.17 0 0 1 -2.54 2.14l-2.77 2.14h7.43v3.3z" fill="#43ff01" transform="translate(-424.03 -534.88)"/><path d="m957.39 591.87h-356.72l-5.23 41.81-5.23-41.81h-6.66l6.92 55.39h9.95l6.17-49.37h350.8z" fill="#43ff01" fill-rule="evenodd" transform="translate(-424.03 -534.88)"/></svg>