<svg viewBox="0 0 1200 282.81" xmlns="http://www.w3.org/2000/svg" xmlns:xlink="http://www.w3.org/1999/xlink"><linearGradient id="a" gradientTransform="matrix(0 -1 1 0 455.6 743.47)" gradientUnits="userSpaceOnUse" x1="418.38" x2="586.66" y1="-252.23" y2="-420.51"><stop offset="0" stop-color="#7866f7"/><stop offset="1" stop-color="#5da7fb"/></linearGradient><linearGradient id="b" x1="491.97" x2="660.25" xlink:href="#a" y1="-178.63" y2="-346.92"/><linearGradient id="c" x1="438.1" x2="606.38" xlink:href="#a" y1="-232.51" y2="-400.79"/><linearGradient id="d" x1="302" x2="237.21" xlink:href="#a" y1="74.58" y2="9.79"/><path d="m268.82 256.14a26.66 26.66 0 0 1 -26.66 26.66h-215.49a26.66 26.66 0 0 1 0-53.32h215.5a26.66 26.66 0 0 1 26.65 26.66z" fill="url(#a)"/><path d="m268.83 256.12a26.66 26.66 0 0 1 -49.75 13.36l-107.75-186.63a26.66 26.66 0 0 1 46.17-26.66l107.75 186.62a26.55 26.55 0 0 1 3.58 13.31z" fill="url(#b)"/><path d="m161.08 69.54a26.53 26.53 0 0 1 -3.58 13.3l-107.74 186.63a26.66 26.66 0 0 1 -46.18-26.66l107.75-186.62a26.66 26.66 0 0 1 49.75 13.36z" fill="url(#c)"/><path d="m306.94 32.81h-20.26l10.13-17.81a10 10 0 0 0 -3.59-13.55 9.8 9.8 0 0 0 -13.41 3.55l-10.13 17.47-10.13-17.55a9.82 9.82 0 0 0 -13.41-3.6 10.14 10.14 0 0 0 -3.59 13.68l10.13 17.81h-20.26a10 10 0 0 0 0 20h20.25l-10.12 17.08a9.55 9.55 0 0 0 3.59 13.18 9.85 9.85 0 0 0 13.41-3.71l10.13-17.6 10.13 17.51a9.81 9.81 0 0 0 13.41 3.58 9.3 9.3 0 0 0 3.59-13l-10.13-17.04h20.25a10 10 0 0 0 0-20z" fill="url(#d)"/><g fill="#3e4de1"><path d="m418.53 186.48c-14.33 0-24.33 10.66-24.33 26.33 0 16 10 26.66 24.33 26.66 7.65 0 14.2-1.92 19.25-5.75a8.87 8.87 0 0 1 11 .4 9 9 0 0 1 .09 13.86c-7.85 6.5-18.52 10.15-31.48 10.15-26.66 0-45-18.33-45-45.16 0-27.16 18.5-45.49 45.33-45.49 12 0 22.18 3.23 29.92 9a9 9 0 0 1 .67 13.69l-.55.52a9.19 9.19 0 0 1 -11.48.78 31.57 31.57 0 0 0 -17.75-4.99z"/><path d="m561.33 212.65c0 27.16-19 45.49-46.83 45.49-28.16 0-47.16-18.33-47.16-45.49 0-27 19-45.16 47.16-45.16 27.84 0 46.83 18.16 46.83 45.16zm-72.16.34c0 16 10.33 27 25.33 27 14.66 0 25-11 25-27s-10.33-27-25-27c-14.99.01-25.32 11.01-25.32 27.01z"/><path d="m670.31 144.49v102.78a10 10 0 0 1 -10 10h-1.58a10 10 0 0 1 -10-10 1.4 1.4 0 0 0 -2.49-.89c-6.4 7.69-15.8 11.93-27.5 11.93-25.5 0-42.49-18.66-42.49-45.83 0-27 17-45.16 42-45.16 12 0 21.48 4.26 28 12.11a1.4 1.4 0 0 0 2.49-.89v-34a10.83 10.83 0 0 1 10.83-10.83 10.83 10.83 0 0 1 10.74 10.78zm-21.67 68.51c0-16-10.33-27.16-25.33-27.16-14.83 0-25.16 11.33-25.33 27.16.17 16 10.33 27.16 25.33 27.16s25.33-11.16 25.33-27.16z"/><path d="m773.71 220.32h-57.42c2.83 12.66 12.5 20.33 25.5 20.33a33.4 33.4 0 0 0 18.46-5.43 8.63 8.63 0 0 1 11 1.14 8.51 8.51 0 0 1 -1 12.8c-8.14 5.75-18.46 9-30.29 9-27.66 0-45.82-18.33-45.82-45.16 0-27.16 18.66-45.49 45.33-45.49 28.34 0 42.09 16.77 42.85 43.9a8.64 8.64 0 0 1 -8.61 8.91zm-11.26-14.5c-.5-13.16-9.33-21.5-22.83-21.5-12.83 0-21.83 8.33-23.83 21.5z"/><path d="m855.13 244.83a8.6 8.6 0 0 1 -5 10.52 41.46 41.46 0 0 1 -15.21 3c-14.5 0-26.16-8.33-26.16-26.66v-42.4a1.63 1.63 0 0 0 -1.63-1.63h-3a7.91 7.91 0 0 1 -7.91-7.83 7.91 7.91 0 0 1 7.91-8h3a1.63 1.63 0 0 0 1.63-1.63v-12.27a10.6 10.6 0 0 1 10.6-10.6h.31a10.59 10.59 0 0 1 10.59 10.59v12.28a1.63 1.63 0 0 0 1.63 1.63h15.95a7.91 7.91 0 0 1 7.91 7.91 7.91 7.91 0 0 1 -7.91 7.91h-15.94a1.63 1.63 0 0 0 -1.63 1.63v38.53c0 8.5 3.5 11.33 9.33 11.33a19.69 19.69 0 0 0 4.94-.69 8.62 8.62 0 0 1 10.46 5.82z"/><path d="m930.41 178.93a9.7 9.7 0 0 1 -8.12 9.69c-14 2-22.21 12-22.21 25.7v32.16a10.83 10.83 0 0 1 -10.83 10.83 10.83 10.83 0 0 1 -10.83-10.83v-67.48a10.83 10.83 0 0 1 10.83-10.83 10.83 10.83 0 0 1 10.83 10.83v6.33a31.48 31.48 0 0 1 17.28-15.71 9.81 9.81 0 0 1 13.05 9.31z"/><path d="m972.23 142.66c0 7-4.83 12-11.66 12s-11.67-5-11.67-12 4.83-12 11.67-12 11.66 5 11.66 12zm-.83 36.34v67.49a10.83 10.83 0 0 1 -10.83 10.83 10.83 10.83 0 0 1 -10.83-10.83v-67.49a10.83 10.83 0 0 1 10.83-10.83 10.83 10.83 0 0 1 10.83 10.83z"/><path d="m1097 213.15c0 26.83-16.5 45-41.83 45-13.5 0-23.83-5.5-30.33-15.33v3.67a10.83 10.83 0 0 1 -10.83 10.83 10.83 10.83 0 0 1 -10.83-10.83v-102a10.83 10.83 0 0 1 10.83-10.83 10.83 10.83 0 0 1 10.83 10.83v38.32c6.33-9.83 16.66-15.33 30-15.33 25.16.01 42.16 18.34 42.16 45.67zm-22-.67c0-15.66-10.33-26.83-25-26.83-14.83 0-25.16 11.17-25.16 26.83 0 16 10.33 27 25.16 27 14.71 0 25-11.17 25-27z"/><path d="m1190 220.32h-56c2.83 12.66 12.5 20.33 25.5 20.33a33.4 33.4 0 0 0 18.46-5.43 8.63 8.63 0 0 1 11 1.14 8.51 8.51 0 0 1 -1 12.8c-8.14 5.75-18.46 9-30.29 9-27.66 0-45.83-18.33-45.83-45.16 0-27.16 18.66-45.49 45.33-45.49 27.82 0 41.58 16.17 42.8 42.43a10 10 0 0 1 -9.97 10.38zm-9.78-14.5c-.5-13.16-9.33-21.5-22.83-21.5-12.83 0-21.83 8.33-23.83 21.5z"/></g></svg>