<?xml version="1.0" encoding="utf-8"?>
<!-- Generator: Adobe Illustrator 21.0.0, SVG Export Plug-In . SVG Version: 6.00 Build 0)  -->
<svg version="1.1" id="Ebene_1" xmlns="http://www.w3.org/2000/svg" xmlns:xlink="http://www.w3.org/1999/xlink" x="0px" y="0px"
	 viewBox="-604.1 135.9 634.8 141.6" style="enable-background:new -604.1 135.9 634.8 141.6;" xml:space="preserve">
<style type="text/css">
	.st0{fill:url(#SVGID_1_);}
	.st1{fill:url(#SVGID_2_);}
	.st2{enable-background:new    ;}
	.st3{fill:#FFFFFF;}
</style>
<linearGradient id="SVGID_1_" gradientUnits="userSpaceOnUse" x1="-593.7926" y1="297.4582" x2="-507.7926" y2="152.4582">
	<stop  offset="0" style="stop-color:#00D7FF"/>
	<stop  offset="1" style="stop-color:#009DDE"/>
</linearGradient>
<path class="st0" d="M-584.7,240.4c-9-7-14.8-18-14.8-30.3c0-21.4,17.8-39,39.9-39c4.4,0,8.7,0.8,12.6,2.1l9.9-18.9h8.3l-11.4,21.7
	c12.3,6.7,20.5,19.5,20.5,34c0,21.6-17.8,39-39.9,39c-6.7,0-13.2-1.7-18.7-4.5l-12.9,24.9h73.6v6.9h-85.6L-584.7,240.4z
	 M-592.2,210.1c0,17.7,14.4,32.2,32.5,32.2c18.1,0,32.5-14.5,32.5-32.2c0-17.5-14.4-32.1-32.5-32.1
	C-577.8,178-592.2,192.6-592.2,210.1z"/>
<linearGradient id="SVGID_2_" gradientUnits="userSpaceOnUse" x1="-502.6859" y1="255.8199" x2="-443.4148" y2="166.5779">
	<stop  offset="0" style="stop-color:#00D7FF"/>
	<stop  offset="1" style="stop-color:#009DDE"/>
</linearGradient>
<path class="st1" d="M-473.4,173.5c21,0,38,17.1,38,38.2c0,21.1-17,38.2-38,38.2s-38-17.1-38-38.2
	C-511.4,190.5-494.4,173.5-473.4,173.5z M-473.4,243.6c17.5,0,31.4-14.5,31.4-32c0-17.5-13.9-32-31.4-32s-31.4,14.5-31.4,32
	C-504.8,229.1-490.8,243.6-473.4,243.6z"/>
<g class="st2">
	<path class="st3" d="M-333.7,143.3v64.5c0,28.3-18.7,42-41.4,42c-22.8,0-42-13.6-42-42v-64.5h10.5v64.5c0,19.9,13.6,32.2,31.5,32.2
		c15.9,0,30.9-10.2,30.9-32.2v-64.5H-333.7z"/>
	<path class="st3" d="M-300.1,174.2l0.6,12.1c4.8-10,14.5-13.3,23.5-13.3c6.7,0,11.4,1.5,16.8,5.3l-4.6,8.4
		c-3.8-2.5-8.1-3.9-12.7-3.9c-12.7,0-22.9,9.9-22.9,23.4v42.1h-10v-74.1H-300.1z"/>
	<path class="st3" d="M-236.8,142.9v46.2c5.5-10.9,17.5-16,29.1-15.9c20.8-0.5,37.3,13.8,37.3,38.2c0,24.6-16.3,38.4-37.3,38.4
		c-11.8,0-22-3.8-29.1-15.6l-0.6,14.1h-9.4V142.9H-236.8z M-236.5,211.3c0,17.3,12.1,28.9,28.2,28.9c15.3,0,27.9-10.2,27.9-28.8
		c0-18.7-12.6-28.8-27.9-28.8C-224.1,182.6-236.5,194.3-236.5,211.3z"/>
	<path class="st3" d="M-89.1,174.2h9.4v74.1h-9.3v-14.7c-6.4,10.9-18.6,16.2-29.7,16.2c-21,0-37.8-15-37.8-38.5
		c0-23.2,16.9-38.1,37.9-38.1c11.4,0,23.7,5.2,29.4,15.7V174.2z M-146.4,211.3c0,17.4,12.4,29.1,28.2,29.1c38.2,0,38.2-58,0-58
		C-133.9,182.3-146.4,193.9-146.4,211.3z"/>
	<path class="st3" d="M2,248.3v-41.5c0-16-9.1-24.3-24.1-24.3c-14.4,0-24.3,11.4-24.3,25.5v40.3h-10v-74.1h9.6l0.3,12.4
		c8.9-14.7,27.1-15.7,39-11.5c12,4,19.8,15.1,19.8,31.5v41.7H2z"/>
</g>
</svg>
