<svg enable-background="new -604.1 135.9 634.8 141.6" viewBox="-604.1 135.9 634.8 141.6" xmlns="http://www.w3.org/2000/svg" xmlns:xlink="http://www.w3.org/1999/xlink"><linearGradient id="a"><stop offset="0" stop-color="#00d7ff"/><stop offset="1" stop-color="#009dde"/></linearGradient><linearGradient id="b" gradientUnits="userSpaceOnUse" x1="-593.7926" x2="-507.7926" xlink:href="#a" y1="297.4582" y2="152.4582"/><linearGradient id="c" gradientUnits="userSpaceOnUse" x1="-502.6859" x2="-443.4148" xlink:href="#a" y1="255.8199" y2="166.5779"/><path d="m-584.7 240.4c-9-7-14.8-18-14.8-30.3 0-21.4 17.8-39 39.9-39 4.4 0 8.7.8 12.6 2.1l9.9-18.9h8.3l-11.4 21.7c12.3 6.7 20.5 19.5 20.5 34 0 21.6-17.8 39-39.9 39-6.7 0-13.2-1.7-18.7-4.5l-12.9 24.9h73.6v6.9h-85.6zm-7.5-30.3c0 17.7 14.4 32.2 32.5 32.2s32.5-14.5 32.5-32.2c0-17.5-14.4-32.1-32.5-32.1s-32.5 14.6-32.5 32.1z" fill="url(#b)"/><path d="m-473.4 173.5c21 0 38 17.1 38 38.2s-17 38.2-38 38.2-38-17.1-38-38.2c0-21.2 17-38.2 38-38.2zm0 70.1c17.5 0 31.4-14.5 31.4-32s-13.9-32-31.4-32-31.4 14.5-31.4 32 14 32 31.4 32z" fill="url(#c)"/><g enable-background="new" fill="#fff"><path d="m-333.7 143.3v64.5c0 28.3-18.7 42-41.4 42-22.8 0-42-13.6-42-42v-64.5h10.5v64.5c0 19.9 13.6 32.2 31.5 32.2 15.9 0 30.9-10.2 30.9-32.2v-64.5z"/><path d="m-300.1 174.2.6 12.1c4.8-10 14.5-13.3 23.5-13.3 6.7 0 11.4 1.5 16.8 5.3l-4.6 8.4c-3.8-2.5-8.1-3.9-12.7-3.9-12.7 0-22.9 9.9-22.9 23.4v42.1h-10v-74.1z"/><path d="m-236.8 142.9v46.2c5.5-10.9 17.5-16 29.1-15.9 20.8-.5 37.3 13.8 37.3 38.2 0 24.6-16.3 38.4-37.3 38.4-11.8 0-22-3.8-29.1-15.6l-.6 14.1h-9.4v-105.4zm.3 68.4c0 17.3 12.1 28.9 28.2 28.9 15.3 0 27.9-10.2 27.9-28.8 0-18.7-12.6-28.8-27.9-28.8-15.8 0-28.2 11.7-28.2 28.7z"/><path d="m-89.1 174.2h9.4v74.1h-9.3v-14.7c-6.4 10.9-18.6 16.2-29.7 16.2-21 0-37.8-15-37.8-38.5 0-23.2 16.9-38.1 37.9-38.1 11.4 0 23.7 5.2 29.4 15.7v-14.7zm-57.3 37.1c0 17.4 12.4 29.1 28.2 29.1 38.2 0 38.2-58 0-58-15.7-.1-28.2 11.5-28.2 28.9z"/><path d="m2 248.3v-41.5c0-16-9.1-24.3-24.1-24.3-14.4 0-24.3 11.4-24.3 25.5v40.3h-10v-74.1h9.6l.3 12.4c8.9-14.7 27.1-15.7 39-11.5 12 4 19.8 15.1 19.8 31.5v41.7z"/></g></svg>