<svg height="148" width="493" xmlns="http://www.w3.org/2000/svg"><path d="m27.346 87.789 36.684-37.147 7.559 7.653-36.692 37.14-7.55-7.646zm72.4-26.065-60.956-61.71-12.327 12.48 22.856 23.14-49.319 49.926 60.954 61.713 12.327-12.48-22.856-23.152 49.322-49.918zm42.02-43.784v18.908h20.285v10.919h-20.285v42.537c0 9.783 2.735 15.324 10.624 15.324 3.863 0 6.12-.328 8.212-.976l.642 10.92c-2.735.975-7.083 1.955-12.556 1.955-6.6 0-11.913-2.287-15.294-6.032-3.863-4.4-5.473-11.408-5.473-20.703v-43.025h-12.077v-10.92h12.077v-14.67l13.845-4.236zm34.834 58.51c0 17.28 9.657 30.314 23.505 30.314 13.524 0 23.666-12.874 23.666-30.64 0-13.365-6.604-30.15-23.344-30.15-16.583 0-23.827 15.646-23.827 30.476zm61.658-.813c0 29.172-20.124 41.89-38.796 41.89-20.93 0-37.35-15.65-37.35-40.585 0-26.24 17.226-41.725 38.64-41.725 22.373 0 37.506 16.46 37.506 40.42zm21.058 7.987c0 2.122.16 4.077.646 5.867 2.577 9.943 11.103 16.785 21.252 16.785 14.967 0 23.66-12.386 23.66-30.476 0-15.647-8.208-29.175-23.178-29.175-9.663 0-18.838 6.848-21.416 17.602-.482 1.792-.964 3.914-.964 5.703zm-14.005-21.024c0-10.106-.325-18.256-.643-25.752h12.553l.81 13.525h.318c5.637-9.615 14.975-15.156 27.692-15.156 18.996 0 33.163 16.135 33.163 39.929 0 28.361-17.229 42.38-35.576 42.38-10.304 0-19.321-4.564-23.994-12.386h-.318v42.86h-14.005zm100.936-44.66v18.908h20.282v10.919h-20.282v42.537c0 9.783 2.735 15.324 10.625 15.324 3.863 0 6.112-.328 8.208-.976l.645 10.92c-2.74.975-7.086 1.955-12.559 1.955-6.598 0-11.91-2.287-15.29-6.032-3.867-4.4-5.474-11.408-5.474-20.703v-43.025h-12.077v-10.92h12.077v-14.67l13.845-4.236zm71.09 57.534c-15.458-.328-33.002 2.444-33.002 17.768 0 9.449 6.113 13.688 13.2 13.688 10.302 0 16.906-6.52 19.156-13.2.485-1.63.646-3.263.646-4.565v-13.69zm13.684 21.35c0 6.849.321 13.529 1.122 18.907h-12.717l-1.122-9.943h-.482c-4.354 6.195-12.72 11.739-23.83 11.739-15.779 0-23.823-11.251-23.823-22.658 0-19.07 16.744-29.5 46.844-29.338v-1.627c0-6.36-1.768-18.256-17.711-18.093-7.405 0-14.967 2.118-20.443 5.866l-3.217-9.614c6.434-4.077 15.934-6.846 25.755-6.846 23.83 0 29.624 16.46 29.624 32.107zm10.498 18.907h14.166v-115.717h-14.166zm50.729-102.231c0 7.45-5.986 13.5-13.5 13.5-7.45 0-13.5-6.05-13.5-13.5 0-7.514 6.05-13.5 13.5-13.5 7.514 0 13.5 5.986 13.5 13.5zm-2.229 0c0-6.304-5.03-11.271-11.271-11.271-6.24 0-11.271 4.967-11.271 11.271 0 6.177 5.03 11.271 11.27 11.271 6.241 0 11.272-5.094 11.272-11.271zm-4.776 7.769h-2.865l-4.012-6.113h-2.484v6.113h-2.356v-15.474h6.304c2.611 0 5.222 1.847 5.222 4.712 0 3.439-3.056 4.585-3.948 4.585l4.14 6.177zm-2.61-10.762c0-1.72-1.465-2.738-2.803-2.738h-3.948v5.349h3.948c1.338 0 2.802-1.019 2.802-2.61z" fill="#204ecf" fill-rule="evenodd"/></svg>